<svg xmlns="http://www.w3.org/2000/svg" width="25.38" height="22.115" viewBox="0 0 25.38 22.115">
  <g id="Group_1277" data-name="Group 1277" transform="translate(-445 -1488.574)">
    <path id="Path_120" data-name="Path 120" d="M4182.6,1505.632l4.152,1h2.155l3.994.263.789-.263.578-1a4.274,4.274,0,0,1,0-.841V1504h0l1.524-.788s-.21-.21,0-.368,0-.736,0-.893v-1.366a3.331,3.331,0,0,1,.525-.315,1.045,1.045,0,0,1,.42,0l.42-.42h0l.21-1.472-.21-.841a2.8,2.8,0,0,1,0-.946,3.031,3.031,0,0,0,.21-.683l-.631-1.261-.946-.263-2.1-.263h-2.155s-.263-.736,0-1.1a4.158,4.158,0,0,0,.63-1.314,4.392,4.392,0,0,1,0-.841c.053-.368-.053-.788,0-1.314s.263-.841,0-1.261-.473-1-.63-1.209-.578-.788-.736-.788-1.314,0-1.314.473a3.523,3.523,0,0,0,0,1.051,1.791,1.791,0,0,1,0,1.051,8.534,8.534,0,0,1-.578,1.209,3.463,3.463,0,0,1-.473.788c-.157.263-.63.841-.63.841l-1.051.841s-1.1.158-1.366.473a7.565,7.565,0,0,1-1.892.788,8.136,8.136,0,0,1-1.156.315,1.412,1.412,0,0,0-.841,0,1.916,1.916,0,0,1-1.1.263c-.42-.052-.473.052-1.156,0s-1.208.052-1.944,0-.946.052-1.314,0-.736.052-1.051,0-.367.052-.63,0-.578-.158-.578.263v10.669l.841.315.788-.315h1.1l.21.893v.42l.368.263h0a7.5,7.5,0,0,0,1.1.315l1.471-.315-.683.315a11.047,11.047,0,0,0,1.261-.315,4.116,4.116,0,0,1,.736-.263l.528-.372.05-.048.368-.578Z" transform="translate(-3728 3)" fill="#44b2e5"/>
    <g id="like" transform="translate(444.999 1396.574)">
      <g id="Group_1127" data-name="Group 1127" transform="translate(0.001 92)">
        <g id="Group_1126" data-name="Group 1126" transform="translate(0)">
          <path id="Path_58" data-name="Path 58" d="M25.381,102.268a2.372,2.372,0,0,0-2.37-2.37H19.492a19.21,19.21,0,0,0,.864-3.64A3.708,3.708,0,0,0,16.693,92a.79.79,0,0,0-.79.79c0,1.908-1.1,4.789-2.376,5.43A34.574,34.574,0,0,1,8.688,99.9H.791a.79.79,0,0,0-.79.79v11.058a.79.79,0,0,0,.79.79H3.16v.79a.79.79,0,0,0,.79.79H7.215a2.372,2.372,0,0,0,2.165-1.409l5.541,1.385a.791.791,0,0,0,.192.024h4.739a2.37,2.37,0,0,0,2.2-3.242,2.37,2.37,0,0,0,1.58-3.159,2.368,2.368,0,0,0,1.141-3.866A2.36,2.36,0,0,0,25.381,102.268ZM3.16,110.956H1.581v-9.478H3.16Zm4.844.79a.791.791,0,0,1-.79.79H4.74V101.478H8Zm10.268-7.109h4.739a.79.79,0,1,1,0,1.58H18.272a.79.79,0,0,0,0,1.58h3.159a.79.79,0,0,1,0,1.58H18.272a.79.79,0,1,0,0,1.58h1.58a.79.79,0,1,1,0,1.58H15.21l-5.626-1.406v-9.842a32.369,32.369,0,0,0,4.65-1.655c1.814-.909,2.925-3.786,3.188-5.923a2.13,2.13,0,0,1,1.372,2.317,12.768,12.768,0,0,1-1.228,4.309.79.79,0,0,0,.706,1.143h4.739a.79.79,0,0,1,0,1.58H18.272a.79.79,0,1,0,0,1.58Z" transform="translate(-0.001 -92)" fill="#83d0f4"/>
        </g>
      </g>
    </g>
  </g>
</svg>
